<?xml version="1.0"?>
<svg xmlns:rdf="http://www.w3.org/1999/02/22-rdf-syntax-ns#" xmlns="http://www.w3.org/2000/svg" xmlns:cc="http://creativecommons.org/ns#" xmlns:xlink="http://www.w3.org/1999/xlink" xmlns:dc="http://purl.org/dc/elements/1.1/" id="svg11772" viewBox="0 0 400 400" version="1.1">
 <defs id="defs11774">
  <linearGradient id="linearGradient11740" y2="367.88" gradientUnits="userSpaceOnUse" x2="315.47" y1="287.49" x1="241.41">
   <stop id="stop4158-5" stop-color="#fff" offset="0"/>
   <stop id="stop4160-5" stop-color="#fff" stop-opacity="0" offset="1"/>
  </linearGradient>
  <filter id="filter6126-4" color-interpolation-filters="sRGB">
   <feGaussianBlur id="feGaussianBlur6128-4" stdDeviation="0.53035713"/>
  </filter>
  <linearGradient id="linearGradient11742" y2="391.45" gradientUnits="userSpaceOnUse" x2="342" y1="300.86" x1="275.61">
   <stop id="stop7258" stop-color="#112b00" offset="0"/>
   <stop id="stop7260" stop-color="#6f0" offset="1"/>
  </linearGradient>
  <radialGradient id="radialGradient11744" gradientUnits="userSpaceOnUse" cy="386.57" cx="312.78" gradientTransform="matrix(-.59327 -.59327 .71505 -.71505 243.27 849.03)" r="53.036">
   <stop id="stop7113-5" stop-color="#fff" stop-opacity=".40816" offset="0"/>
   <stop id="stop7115-9" stop-color="#fff" stop-opacity="0" offset="1"/>
  </radialGradient>
  <linearGradient id="linearGradient12135" y2="338.82" gradientUnits="userSpaceOnUse" y1="286.67" gradientTransform="matrix(.95534 0 0 .95534 55.103 592.67)" x2="300.27" x1="255.32">
   <stop id="stop4150-9" stop-color="#fff" offset="0"/>
   <stop id="stop4152-86" stop-color="#fff" stop-opacity="0" offset="1"/>
  </linearGradient>
 </defs>
 <g id="layer1" transform="translate(0 -652.36)">
  <g id="g11707" transform="matrix(2.9051 0 0 2.9051 -770.2 -1760.1)">
   <path id="path7234" d="m356.79 346.11c0 29.291-23.745 53.036-53.036 53.036s-53.036-23.745-53.036-53.036 23.745-53.036 53.036-53.036 53.036 23.745 53.036 53.036z" transform="matrix(.97354 0 0 .97354 39.077 565.99)" fill="#999"/>
   <path id="path7236" d="m356.79 346.11c0 29.291-23.745 53.036-53.036 53.036s-53.036-23.745-53.036-53.036 23.745-53.036 53.036-53.036 53.036 23.745 53.036 53.036z" transform="matrix(.95960 0 0 .95960 43.313 570.82)" fill="url(#linearGradient11740)"/>
   <path id="path7238" d="m356.79 346.11c0 29.291-23.745 53.036-53.036 53.036s-53.036-23.745-53.036-53.036 23.745-53.036 53.036-53.036 53.036 23.745 53.036 53.036z" transform="matrix(.87355 0 0 .87355 69.45 600.6)" filter="url(#filter6126-4)" fill="#ececec"/>
   <path id="path7240" d="m356.79 346.11c0 29.291-23.745 53.036-53.036 53.036s-53.036-23.745-53.036-53.036 23.745-53.036 53.036-53.036 53.036 23.745 53.036 53.036z" transform="matrix(.83838 0 0 .83838 80.131 612.77)" filter="url(#filter6126-4)" fill="#999"/>
   <path id="path7242" d="m356.79 346.11c0 29.291-23.745 53.036-53.036 53.036s-53.036-23.745-53.036-53.036 23.745-53.036 53.036-53.036 53.036 23.745 53.036 53.036z" transform="matrix(.80587 0 0 .80587 90.008 624.02)" fill="url(#linearGradient11742)"/>
   <path id="path7244" d="m356.79 346.11c0 29.291-23.745 53.036-53.036 53.036s-53.036-23.745-53.036-53.036 23.745-53.036 53.036-53.036 53.036 23.745 53.036 53.036z" transform="matrix(.75825 0 0 .75825 105.73 642.52)" fill="url(#radialGradient11744)"/>
   <path id="path7246" opacity=".31771" d="m333.79 862.76c-13.331 0.30069-26.186 7.358-33.336 19.742-7.6903 13.32-6.7139 29.266 1.1545 41.331 0.85306-26.532 21.132-46.515 46.324-45.054 8.2589 0.47907 16.054 3.2001 22.859 7.5908-3.2578-7.4498-8.8171-13.953-16.394-18.327-6.4867-3.7451-13.625-5.4393-20.608-5.2818z" fill="url(#linearGradient12135)"/>
  </g>
 </g>
 <metadata>
  <rdf:RDF>
   <cc:Work>
    <dc:format>image/svg+xml</dc:format>
    <dc:type rdf:resource="http://purl.org/dc/dcmitype/StillImage"/>
    <cc:license rdf:resource="http://creativecommons.org/licenses/publicdomain/"/>
    <dc:publisher>
     <cc:Agent rdf:about="http://openclipart.org/">
      <dc:title>Openclipart</dc:title>
     </cc:Agent>
    </dc:publisher>
   </cc:Work>
   <cc:License rdf:about="http://creativecommons.org/licenses/publicdomain/">
    <cc:permits rdf:resource="http://creativecommons.org/ns#Reproduction"/>
    <cc:permits rdf:resource="http://creativecommons.org/ns#Distribution"/>
    <cc:permits rdf:resource="http://creativecommons.org/ns#DerivativeWorks"/>
   </cc:License>
  </rdf:RDF>
 </metadata>
</svg>
