<?xml version="1.0"?>
<svg xmlns:rdf="http://www.w3.org/1999/02/22-rdf-syntax-ns#" xmlns="http://www.w3.org/2000/svg" xmlns:cc="http://creativecommons.org/ns#" xmlns:xlink="http://www.w3.org/1999/xlink" xmlns:dc="http://purl.org/dc/elements/1.1/" id="svg11772" viewBox="0 0 400 400" version="1.1">
 <defs id="defs11774">
  <linearGradient id="linearGradient11732" y2="367.88" gradientUnits="userSpaceOnUse" x2="315.47" y1="287.49" x1="241.41">
   <stop id="stop4158-0" stop-color="#fff" offset="0"/>
   <stop id="stop4160-0" stop-color="#fff" stop-opacity="0" offset="1"/>
  </linearGradient>
  <filter id="filter6126-7" color-interpolation-filters="sRGB">
   <feGaussianBlur id="feGaussianBlur6128-1" stdDeviation="0.53035713"/>
  </filter>
  <linearGradient id="linearGradient11734" y2="391.45" gradientUnits="userSpaceOnUse" x2="342" y1="300.86" x1="275.61">
   <stop id="stop7201" stop-color="#500" offset="0"/>
   <stop id="stop7203" stop-color="#f00" offset="1"/>
  </linearGradient>
  <radialGradient id="radialGradient11736" gradientUnits="userSpaceOnUse" cy="386.57" cx="312.78" gradientTransform="matrix(-.59327 -.59327 .71505 -.71505 243.27 849.03)" r="53.036">
   <stop id="stop7113-1" stop-color="#fff" stop-opacity=".40816" offset="0"/>
   <stop id="stop7115-8" stop-color="#fff" stop-opacity="0" offset="1"/>
  </radialGradient>
  <linearGradient id="linearGradient11925" y2="338.82" gradientUnits="userSpaceOnUse" y1="286.67" gradientTransform="matrix(.95534 0 0 .95534 -84.897 472.67)" x2="300.27" x1="255.32">
   <stop id="stop4150-3" stop-color="#fff" offset="0"/>
   <stop id="stop4152-8" stop-color="#fff" stop-opacity="0" offset="1"/>
  </linearGradient>
 </defs>
 <g id="layer1" transform="translate(0 -652.36)">
  <g id="g11689" transform="matrix(2.9051 0 0 2.9051 -368.53 -1417.5)">
   <path id="path7177" d="m356.79 346.11c0 29.291-23.745 53.036-53.036 53.036s-53.036-23.745-53.036-53.036 23.745-53.036 53.036-53.036 53.036 23.745 53.036 53.036z" transform="matrix(.97354 0 0 .97354 -100.92 445.99)" fill="#999"/>
   <path id="path7179" d="m356.79 346.11c0 29.291-23.745 53.036-53.036 53.036s-53.036-23.745-53.036-53.036 23.745-53.036 53.036-53.036 53.036 23.745 53.036 53.036z" transform="matrix(.95960 0 0 .95960 -96.687 450.82)" fill="url(#linearGradient11732)"/>
   <path id="path7181" d="m356.79 346.11c0 29.291-23.745 53.036-53.036 53.036s-53.036-23.745-53.036-53.036 23.745-53.036 53.036-53.036 53.036 23.745 53.036 53.036z" transform="matrix(.87355 0 0 .87355 -70.55 480.6)" filter="url(#filter6126-7)" fill="#ececec"/>
   <path id="path7183" d="m356.79 346.11c0 29.291-23.745 53.036-53.036 53.036s-53.036-23.745-53.036-53.036 23.745-53.036 53.036-53.036 53.036 23.745 53.036 53.036z" transform="matrix(.83838 0 0 .83838 -59.869 492.77)" filter="url(#filter6126-7)" fill="#999"/>
   <path id="path7185" d="m356.79 346.11c0 29.291-23.745 53.036-53.036 53.036s-53.036-23.745-53.036-53.036 23.745-53.036 53.036-53.036 53.036 23.745 53.036 53.036z" transform="matrix(.80587 0 0 .80587 -49.992 504.02)" fill="url(#linearGradient11734)"/>
   <path id="path7187" d="m356.79 346.11c0 29.291-23.745 53.036-53.036 53.036s-53.036-23.745-53.036-53.036 23.745-53.036 53.036-53.036 53.036 23.745 53.036 53.036z" transform="matrix(.75825 0 0 .75825 -34.266 522.52)" fill="url(#radialGradient11736)"/>
   <path id="path7189" opacity=".31771" d="m193.79 742.76c-13.331 0.30069-26.186 7.358-33.336 19.742-7.6903 13.32-6.7139 29.266 1.1545 41.331 0.85306-26.532 21.132-46.515 46.324-45.054 8.2589 0.47907 16.054 3.2001 22.859 7.5908-3.2578-7.4498-8.8171-13.953-16.394-18.327-6.4867-3.7451-13.625-5.4393-20.608-5.2818z" fill="url(#linearGradient11925)"/>
  </g>
 </g>
 <metadata>
  <rdf:RDF>
   <cc:Work>
    <dc:format>image/svg+xml</dc:format>
    <dc:type rdf:resource="http://purl.org/dc/dcmitype/StillImage"/>
    <cc:license rdf:resource="http://creativecommons.org/licenses/publicdomain/"/>
    <dc:publisher>
     <cc:Agent rdf:about="http://openclipart.org/">
      <dc:title>Openclipart</dc:title>
     </cc:Agent>
    </dc:publisher>
   </cc:Work>
   <cc:License rdf:about="http://creativecommons.org/licenses/publicdomain/">
    <cc:permits rdf:resource="http://creativecommons.org/ns#Reproduction"/>
    <cc:permits rdf:resource="http://creativecommons.org/ns#Distribution"/>
    <cc:permits rdf:resource="http://creativecommons.org/ns#DerivativeWorks"/>
   </cc:License>
  </rdf:RDF>
 </metadata>
</svg>
